<?xml version="1.0" encoding="UTF-8" standalone="no"?><!DOCTYPE svg PUBLIC "-//W3C//DTD SVG 1.1//EN" "http://www.w3.org/Graphics/SVG/1.1/DTD/svg11.dtd"><svg width="100%" height="100%" viewBox="0 0 440 150" version="1.1" xmlns="http://www.w3.org/2000/svg" xmlns:xlink="http://www.w3.org/1999/xlink" xml:space="preserve" xmlns:serif="http://www.serif.com/" style="fill-rule:evenodd;clip-rule:evenodd;stroke-linejoin:round;stroke-miterlimit:2;"><g><path d="M12.646,139.372l2.089,-0l3.168,-11.934l0.045,0l3.157,11.934l2.101,-0l4.133,-16.555l-2.646,-0l-2.611,11.763l-0.046,0l-3.202,-11.763l-1.817,-0l-3.213,11.763l-0.045,0l-2.601,-11.763l-2.645,-0l4.133,16.555Z" style="fill:#75c043;fill-rule:nonzero;"/><path d="M31.415,133.445l2.396,-7.233l0.045,-0l2.396,7.233l-4.837,-0Zm6.836,5.927l2.645,-0l-6.018,-16.555l-2.1,-0l-6.018,16.555l2.657,-0l1.271,-3.702l6.28,0l1.283,3.702Z" style="fill:#75c043;fill-rule:nonzero;"/><path d="M43.746,139.372l2.521,-0l0,-14.318l4.531,-0l-0,-2.237l-11.582,-0l-0,2.237l4.53,-0l0,14.318Z" style="fill:#75c043;fill-rule:nonzero;"/><path d="M52.569,139.372l10.571,-0l0,-2.373l-8.061,-0l-0,-4.86l6.881,-0l-0,-2.226l-6.881,0l-0,-4.723l8.061,-0l0,-2.373l-10.571,-0l0,16.555Z" style="fill:#75c043;fill-rule:nonzero;"/><path d="M68.012,125.054l3.928,-0c0.803,-0 1.416,0.17 1.84,0.511c0.537,0.386 0.814,1.01 0.829,1.873c-0,0.719 -0.231,1.325 -0.693,1.817c-0.469,0.53 -1.173,0.802 -2.112,0.817l-3.792,0l-0,-5.018Zm-2.51,14.318l2.51,-0l-0,-7.074l3.202,-0l3.417,7.074l2.987,-0l-3.838,-7.347c2.104,-0.81 3.172,-2.339 3.202,-4.587c-0.045,-1.529 -0.594,-2.706 -1.647,-3.531c-0.87,-0.727 -1.994,-1.09 -3.372,-1.09l-6.461,-0l0,16.555Z" style="fill:#75c043;fill-rule:nonzero;"/><path d="M87.769,125.054l3.929,-0c0.802,-0 1.415,0.17 1.839,0.511c0.538,0.386 0.814,1.01 0.829,1.873c0,0.719 -0.231,1.325 -0.693,1.817c-0.469,0.53 -1.173,0.802 -2.112,0.817l-3.792,0l-0,-5.018Zm-2.509,14.318l2.509,-0l-0,-7.074l3.202,-0l3.418,7.074l2.986,-0l-3.838,-7.347c2.105,-0.81 3.172,-2.339 3.202,-4.587c-0.045,-1.529 -0.594,-2.706 -1.646,-3.531c-0.871,-0.727 -1.995,-1.09 -3.373,-1.09l-6.46,-0l-0,16.555Z" style="fill:#75c043;fill-rule:nonzero;"/><path d="M99.442,139.372l10.571,-0l-0,-2.373l-8.062,-0l0,-4.86l6.881,-0l0,-2.226l-6.881,0l0,-4.723l8.062,-0l-0,-2.373l-10.571,-0l-0,16.555Z" style="fill:#75c043;fill-rule:nonzero;"/><path d="M117.746,132.627l3.372,0l-0,0.863c-0.015,1.037 -0.341,1.874 -0.977,2.51c-0.635,0.666 -1.442,0.999 -2.418,0.999c-0.591,-0 -1.098,-0.125 -1.522,-0.375c-0.431,-0.212 -0.779,-0.488 -1.044,-0.829c-0.326,-0.356 -0.542,-0.821 -0.648,-1.396c-0.121,-0.576 -0.181,-1.677 -0.181,-3.305c-0,-1.627 0.06,-2.736 0.181,-3.327c0.106,-0.56 0.322,-1.018 0.648,-1.374c0.265,-0.34 0.613,-0.624 1.044,-0.851c0.424,-0.22 0.931,-0.337 1.522,-0.352c0.802,0.015 1.484,0.246 2.044,0.692c0.537,0.47 0.908,1.038 1.113,1.704l2.657,-0c-0.265,-1.386 -0.901,-2.548 -1.908,-3.486c-1.007,-0.931 -2.309,-1.404 -3.906,-1.42c-1.302,0.016 -2.388,0.326 -3.259,0.932c-0.886,0.598 -1.529,1.279 -1.93,2.043c-0.25,0.402 -0.436,0.928 -0.557,1.579c-0.113,0.651 -0.17,1.938 -0.17,3.86c0,1.893 0.057,3.172 0.17,3.838c0.061,0.356 0.137,0.651 0.227,0.886c0.099,0.227 0.209,0.465 0.33,0.715c0.401,0.765 1.044,1.439 1.93,2.021c0.871,0.606 1.957,0.924 3.259,0.954c1.688,-0.03 3.088,-0.602 4.201,-1.714c1.105,-1.121 1.673,-2.51 1.703,-4.168l0,-3.372l-5.881,0l-0,2.373Z" style="fill:#75c043;fill-rule:nonzero;"/><path d="M126.25,133.763c0.015,1.741 0.591,3.122 1.726,4.144c1.113,1.052 2.498,1.586 4.156,1.601c1.688,-0.015 3.085,-0.549 4.19,-1.601c1.098,-1.022 1.662,-2.403 1.692,-4.144l-0,-10.946l-2.51,-0l0,10.673c-0.015,1.128 -0.333,1.987 -0.953,2.578c-0.636,0.62 -1.442,0.931 -2.419,0.931c-0.976,-0 -1.775,-0.311 -2.396,-0.931c-0.636,-0.591 -0.961,-1.45 -0.976,-2.578l-0,-10.673l-2.51,-0l0,10.946Z" style="fill:#75c043;fill-rule:nonzero;"/><path d="M141.205,139.372l10.571,-0l-0,-2.373l-8.062,-0l-0,-14.182l-2.509,-0l-0,16.555Z" style="fill:#75c043;fill-rule:nonzero;"/><path d="M157.067,133.445l2.396,-7.233l0.045,-0l2.396,7.233l-4.837,-0Zm6.836,5.927l2.645,-0l-6.018,-16.555l-2.1,-0l-6.018,16.555l2.657,-0l1.271,-3.702l6.28,0l1.283,3.702Z" style="fill:#75c043;fill-rule:nonzero;"/><path d="M169.398,139.372l2.521,-0l0,-14.318l4.531,-0l-0,-2.237l-11.582,-0l-0,2.237l4.53,-0l0,14.318Z" style="fill:#75c043;fill-rule:nonzero;"/><rect x="178.221" y="122.817" width="2.509" height="16.555" style="fill:#75c043;fill-rule:nonzero;"/><path d="M183.649,131.094c-0,1.893 0.056,3.172 0.17,3.838c0.061,0.356 0.136,0.651 0.227,0.886c0.099,0.227 0.208,0.465 0.329,0.715c0.402,0.765 1.045,1.439 1.931,2.021c0.87,0.606 1.957,0.924 3.259,0.954c1.317,-0.03 2.414,-0.348 3.292,-0.954c0.871,-0.582 1.499,-1.256 1.885,-2.021c0.28,-0.401 0.473,-0.935 0.579,-1.601c0.099,-0.666 0.148,-1.945 0.148,-3.838c0,-1.922 -0.049,-3.209 -0.148,-3.86c-0.106,-0.651 -0.299,-1.177 -0.579,-1.579c-0.386,-0.764 -1.014,-1.445 -1.885,-2.043c-0.878,-0.606 -1.975,-0.916 -3.292,-0.932c-1.302,0.016 -2.389,0.326 -3.259,0.932c-0.886,0.598 -1.529,1.279 -1.931,2.043c-0.249,0.402 -0.435,0.928 -0.556,1.579c-0.114,0.651 -0.17,1.938 -0.17,3.86Zm2.52,0c0,-1.627 0.061,-2.736 0.182,-3.327c0.106,-0.56 0.322,-1.018 0.647,-1.374c0.265,-0.34 0.614,-0.624 1.045,-0.851c0.424,-0.22 0.931,-0.337 1.522,-0.352c0.598,0.015 1.116,0.132 1.555,0.352c0.417,0.227 0.75,0.511 0.999,0.851c0.326,0.356 0.549,0.814 0.67,1.374c0.114,0.591 0.171,1.7 0.171,3.327c-0,1.628 -0.057,2.729 -0.171,3.305c-0.121,0.575 -0.344,1.04 -0.67,1.396c-0.249,0.341 -0.582,0.617 -0.999,0.829c-0.439,0.25 -0.957,0.375 -1.555,0.375c-0.591,-0 -1.098,-0.125 -1.522,-0.375c-0.431,-0.212 -0.78,-0.488 -1.045,-0.829c-0.325,-0.356 -0.541,-0.821 -0.647,-1.396c-0.121,-0.576 -0.182,-1.677 -0.182,-3.305Z" style="fill:#75c043;fill-rule:nonzero;"/><path d="M198.399,139.372l2.509,-0l-0,-11.764l0.045,0l7.483,11.764l2.373,-0l0,-16.555l-2.509,-0l-0,11.763l-0.045,0l-7.495,-11.763l-2.361,-0l-0,16.555Z" style="fill:#75c043;fill-rule:nonzero;"/><path d="M214.511,135.352l-1.646,1.885c1.763,1.514 3.872,2.271 6.324,2.271c3.793,-0.045 5.731,-1.65 5.814,-4.814c-0,-1.174 -0.367,-2.203 -1.102,-3.089c-0.741,-0.901 -1.888,-1.457 -3.44,-1.669c-0.787,-0.098 -1.408,-0.185 -1.862,-0.261c-0.818,-0.151 -1.412,-0.424 -1.783,-0.818c-0.371,-0.386 -0.556,-0.817 -0.556,-1.294c0.015,-0.795 0.291,-1.393 0.829,-1.794c0.514,-0.386 1.158,-0.579 1.93,-0.579c1.491,0.03 2.857,0.454 4.099,1.272l1.397,-2.067c-1.522,-1.098 -3.312,-1.669 -5.371,-1.715c-1.711,0.016 -3.032,0.462 -3.963,1.34c-0.961,0.886 -1.442,2.052 -1.442,3.498c-0,1.203 0.382,2.225 1.147,3.065c0.742,0.818 1.824,1.344 3.247,1.579c0.795,0.113 1.526,0.215 2.192,0.306c1.453,0.25 2.172,0.992 2.157,2.226c-0.03,1.506 -1.12,2.275 -3.27,2.305c-1.817,-0.015 -3.384,-0.564 -4.701,-1.647Z" style="fill:#75c043;fill-rule:nonzero;"/><path d="M236.153,133.445l2.396,-7.233l0.046,-0l2.395,7.233l-4.837,-0Zm6.836,5.927l2.645,-0l-6.018,-16.555l-2.1,-0l-6.018,16.555l2.657,-0l1.272,-3.702l6.279,0l1.283,3.702Z" style="fill:#75c043;fill-rule:nonzero;"/><path d="M249.915,125.19l3.622,-0c0.682,-0.015 1.28,0.14 1.794,0.465c0.341,0.197 0.606,0.466 0.795,0.807c0.182,0.378 0.273,0.844 0.273,1.396c-0,0.666 -0.224,1.272 -0.67,1.817c-0.469,0.56 -1.17,0.848 -2.101,0.863l-3.713,-0l0,-5.348Zm-2.509,14.182l2.509,-0l0,-6.461l3.815,0c1.704,-0.03 2.998,-0.575 3.884,-1.635c0.863,-1.007 1.294,-2.123 1.294,-3.35c0,-0.908 -0.17,-1.695 -0.511,-2.361c-0.325,-0.689 -0.749,-1.219 -1.271,-1.59c-0.621,-0.492 -1.234,-0.818 -1.84,-0.977c-0.606,-0.121 -1.234,-0.181 -1.885,-0.181l-5.995,-0l-0,16.555Z" style="fill:#75c043;fill-rule:nonzero;"/><path d="M263.7,125.19l3.622,-0c0.681,-0.015 1.279,0.14 1.794,0.465c0.341,0.197 0.606,0.466 0.795,0.807c0.182,0.378 0.273,0.844 0.273,1.396c-0,0.666 -0.224,1.272 -0.67,1.817c-0.47,0.56 -1.17,0.848 -2.101,0.863l-3.713,-0l-0,-5.348Zm-2.509,14.182l2.509,-0l-0,-6.461l3.815,0c1.703,-0.03 2.998,-0.575 3.883,-1.635c0.863,-1.007 1.295,-2.123 1.295,-3.35c-0,-0.908 -0.17,-1.695 -0.511,-2.361c-0.326,-0.689 -0.749,-1.219 -1.272,-1.59c-0.621,-0.492 -1.234,-0.818 -1.839,-0.977c-0.606,-0.121 -1.234,-0.181 -1.885,-0.181l-5.995,-0l-0,16.555Z" style="fill:#75c043;fill-rule:nonzero;"/><path d="M277.485,125.054l3.928,-0c0.803,-0 1.416,0.17 1.84,0.511c0.537,0.386 0.814,1.01 0.829,1.873c-0,0.719 -0.231,1.325 -0.693,1.817c-0.469,0.53 -1.173,0.802 -2.112,0.817l-3.792,0l-0,-5.018Zm-2.51,14.318l2.51,-0l-0,-7.074l3.202,-0l3.417,7.074l2.987,-0l-3.838,-7.347c2.104,-0.81 3.172,-2.339 3.202,-4.587c-0.046,-1.529 -0.594,-2.706 -1.647,-3.531c-0.87,-0.727 -1.994,-1.09 -3.372,-1.09l-6.461,-0l0,16.555Z" style="fill:#75c043;fill-rule:nonzero;"/><path d="M288.59,131.094c-0,1.893 0.056,3.172 0.17,3.838c0.06,0.356 0.136,0.651 0.227,0.886c0.098,0.227 0.208,0.465 0.329,0.715c0.402,0.765 1.045,1.439 1.931,2.021c0.87,0.606 1.956,0.924 3.258,0.954c1.318,-0.03 2.415,-0.348 3.293,-0.954c0.871,-0.582 1.499,-1.256 1.885,-2.021c0.28,-0.401 0.473,-0.935 0.579,-1.601c0.099,-0.666 0.148,-1.945 0.148,-3.838c-0,-1.922 -0.049,-3.209 -0.148,-3.86c-0.106,-0.651 -0.299,-1.177 -0.579,-1.579c-0.386,-0.764 -1.014,-1.445 -1.885,-2.043c-0.878,-0.606 -1.975,-0.916 -3.293,-0.932c-1.302,0.016 -2.388,0.326 -3.258,0.932c-0.886,0.598 -1.529,1.279 -1.931,2.043c-0.249,0.402 -0.435,0.928 -0.556,1.579c-0.114,0.651 -0.17,1.938 -0.17,3.86Zm2.52,0c0,-1.627 0.061,-2.736 0.182,-3.327c0.106,-0.56 0.322,-1.018 0.647,-1.374c0.265,-0.34 0.613,-0.624 1.045,-0.851c0.424,-0.22 0.931,-0.337 1.521,-0.352c0.598,0.015 1.117,0.132 1.556,0.352c0.416,0.227 0.749,0.511 0.999,0.851c0.326,0.356 0.549,0.814 0.67,1.374c0.114,0.591 0.171,1.7 0.171,3.327c-0,1.628 -0.057,2.729 -0.171,3.305c-0.121,0.575 -0.344,1.04 -0.67,1.396c-0.25,0.341 -0.583,0.617 -0.999,0.829c-0.439,0.25 -0.958,0.375 -1.556,0.375c-0.59,-0 -1.097,-0.125 -1.521,-0.375c-0.432,-0.212 -0.78,-0.488 -1.045,-0.829c-0.325,-0.356 -0.541,-0.821 -0.647,-1.396c-0.121,-0.576 -0.182,-1.677 -0.182,-3.305Z" style="fill:#75c043;fill-rule:nonzero;"/><path d="M306.496,139.372l1.953,-0l5.473,-16.555l-2.657,-0l-3.77,12.603l-0.045,0l-3.759,-12.603l-2.657,-0l5.462,16.555Z" style="fill:#75c043;fill-rule:nonzero;"/><path d="M317.34,133.445l2.396,-7.233l0.045,-0l2.396,7.233l-4.837,-0Zm6.835,5.927l2.646,-0l-6.018,-16.555l-2.101,-0l-6.018,16.555l2.657,-0l1.272,-3.702l6.279,0l1.283,3.702Z" style="fill:#75c043;fill-rule:nonzero;"/><path d="M328.592,139.372l10.572,-0l-0,-2.373l-8.062,-0l-0,-14.182l-2.51,-0l0,16.555Z" style="fill:#75c043;fill-rule:nonzero;"/><path d="M347.305,135.352l-1.646,1.885c1.764,1.514 3.872,2.271 6.324,2.271c3.793,-0.045 5.731,-1.65 5.814,-4.814c-0,-1.174 -0.367,-2.203 -1.101,-3.089c-0.742,-0.901 -1.889,-1.457 -3.441,-1.669c-0.787,-0.098 -1.408,-0.185 -1.862,-0.261c-0.818,-0.151 -1.412,-0.424 -1.783,-0.818c-0.371,-0.386 -0.556,-0.817 -0.556,-1.294c0.015,-0.795 0.291,-1.393 0.829,-1.794c0.514,-0.386 1.158,-0.579 1.93,-0.579c1.491,0.03 2.858,0.454 4.099,1.272l1.397,-2.067c-1.522,-1.098 -3.312,-1.669 -5.371,-1.715c-1.711,0.016 -3.032,0.462 -3.963,1.34c-0.961,0.886 -1.442,2.052 -1.442,3.498c0,1.203 0.382,2.225 1.147,3.065c0.742,0.818 1.824,1.344 3.247,1.579c0.795,0.113 1.526,0.215 2.192,0.306c1.453,0.25 2.172,0.992 2.157,2.226c-0.03,1.506 -1.12,2.275 -3.27,2.305c-1.817,-0.015 -3.384,-0.564 -4.701,-1.647Z" style="fill:#75c043;fill-rule:nonzero;"/><path d="M368.947,134.739c-0.696,1.507 -1.748,2.26 -3.156,2.26c-0.591,-0 -1.098,-0.125 -1.522,-0.375c-0.431,-0.212 -0.779,-0.488 -1.044,-0.829c-0.326,-0.356 -0.542,-0.821 -0.648,-1.396c-0.121,-0.576 -0.181,-1.677 -0.181,-3.305c-0,-1.627 0.06,-2.736 0.181,-3.327c0.106,-0.56 0.322,-1.018 0.648,-1.374c0.265,-0.34 0.613,-0.624 1.044,-0.851c0.424,-0.22 0.931,-0.337 1.522,-0.352c0.802,0.015 1.483,0.246 2.044,0.692c0.537,0.47 0.908,1.038 1.112,1.704l2.657,-0c-0.265,-1.386 -0.9,-2.548 -1.907,-3.486c-1.007,-0.931 -2.309,-1.404 -3.906,-1.42c-1.302,0.016 -2.389,0.326 -3.259,0.932c-0.886,0.598 -1.529,1.279 -1.93,2.043c-0.25,0.402 -0.436,0.928 -0.557,1.579c-0.113,0.651 -0.17,1.938 -0.17,3.86c-0,1.893 0.057,3.172 0.17,3.838c0.061,0.356 0.136,0.651 0.227,0.886c0.099,0.227 0.208,0.465 0.33,0.715c0.401,0.765 1.044,1.439 1.93,2.021c0.87,0.606 1.957,0.924 3.259,0.954c1.438,0 2.683,-0.409 3.735,-1.226c1.022,-0.825 1.715,-2.006 2.078,-3.543l-2.657,0Z" style="fill:#75c043;fill-rule:nonzero;"/><path d="M382.437,139.372l2.509,-0l0,-16.555l-2.509,-0l-0,7.096l-6.552,0l0,-7.096l-2.509,-0l-0,16.555l2.509,-0l0,-7.233l6.552,-0l-0,7.233Z" style="fill:#75c043;fill-rule:nonzero;"/><path d="M388.444,139.372l10.571,-0l-0,-2.373l-8.062,-0l-0,-4.86l6.881,-0l-0,-2.226l-6.881,0l-0,-4.723l8.062,-0l-0,-2.373l-10.571,-0l-0,16.555Z" style="fill:#75c043;fill-rule:nonzero;"/><path d="M401.377,139.372l2.509,-0l0,-10.322l0.045,0l3.464,7.949l2.089,-0l3.463,-7.949l0.057,0l-0,10.322l2.509,-0l0,-16.555l-2.373,-0l-4.655,10.787l-4.747,-10.787l-2.361,-0l-0,16.555Z" style="fill:#75c043;fill-rule:nonzero;"/><path d="M418.999,139.372l10.572,-0l-0,-2.373l-8.062,-0l-0,-4.86l6.881,-0l-0,-2.226l-6.881,0l-0,-4.723l8.062,-0l-0,-2.373l-10.572,-0l0,16.555Z" style="fill:#75c043;fill-rule:nonzero;"/></g><path d="M202.598,10.523l-10.806,0.017c-0.857,0.002 -1.603,0.589 -1.807,1.424l-17.009,70.092l-19.158,-70.161c-0.221,-0.809 -0.958,-1.372 -1.799,-1.372l-9.122,-0c-0.841,-0 -1.578,0.563 -1.8,1.372l-19.156,70.161l-17.009,-70.092c-0.202,-0.835 -0.95,-1.422 -1.809,-1.424l-10.804,-0.017l-0.003,-0c-0.577,-0 -1.119,0.268 -1.472,0.719c-0.353,0.454 -0.477,1.049 -0.334,1.606l24.417,95.662c0.211,0.824 0.954,1.403 1.804,1.403l0.008,-0l9.513,-0.043c0.833,-0.004 1.565,-0.564 1.786,-1.368l19.42,-70.182l19.419,70.182c0.223,0.804 0.954,1.364 1.788,1.368l9.511,0.043l0.008,-0c0.852,-0 1.595,-0.579 1.806,-1.403l24.415,-95.662c0.143,-0.557 0.02,-1.152 -0.332,-1.606c-0.354,-0.454 -0.801,-0.7 -1.475,-0.719" style="fill:#002d55;fill-rule:nonzero;"/><path d="M325.423,11.747c-0.27,-0.735 -0.968,-1.225 -1.751,-1.225l-8.586,0c-0.78,0 -1.479,0.488 -1.748,1.223l-35.151,95.661c-0.211,0.569 -0.129,1.208 0.218,1.707c0.35,0.501 0.921,0.799 1.529,0.799l10.866,0c0.786,0 1.486,-0.492 1.754,-1.232l7.399,-20.503l38.882,-0l7.107,20.525c0.26,0.751 0.966,1.254 1.761,1.254l0.008,-0l10.985,-0.044c0.607,-0.003 1.175,-0.301 1.522,-0.8c0.346,-0.501 0.43,-1.135 0.22,-1.706l-35.015,-95.659Zm-21.171,63.846l15.252,-42.828l15.069,42.828l-30.321,-0Z" style="fill:#002d55;fill-rule:nonzero;"/><path d="M423.504,63.363c-3.906,-3.341 -7.17,-5.505 -9.982,-6.622c-2.721,-1.076 -6.385,-1.951 -10.869,-2.592l-10.422,-1.604c-2.364,-0.419 -4.677,-1.084 -6.874,-1.975c-2.128,-0.857 -4.211,-2.15 -6.195,-3.845c-1.705,-1.454 -2.568,-4.34 -2.568,-8.577c-0,-4.948 1.531,-8.732 4.682,-11.563c3.166,-2.843 7.734,-4.285 13.58,-4.285c4.57,-0 8.561,0.656 11.863,1.95c3.307,1.3 6.389,3.234 9.156,5.75c0.735,0.669 1.866,0.644 2.571,-0.061l6.575,-6.574c0.363,-0.362 0.56,-0.86 0.546,-1.37c-0.016,-0.514 -0.241,-0.995 -0.623,-1.339c-4.362,-3.895 -8.872,-6.723 -13.406,-8.406c-4.527,-1.681 -10.003,-2.531 -16.279,-2.531c-9.819,-0 -17.753,2.641 -23.581,7.854c-5.888,5.266 -8.874,12.323 -8.874,20.977c0,8.127 2.47,14.42 7.341,18.707c4.717,4.152 11.124,6.915 19.056,8.222l11.133,1.744c3.263,0.517 5.746,1.074 7.376,1.658c1.514,0.544 3.319,1.733 5.369,3.534c1.807,1.594 2.722,4.781 2.722,9.471c-0,4.985 -1.738,8.76 -5.317,11.541c-3.669,2.857 -8.839,4.306 -15.359,4.306c-5.289,-0 -9.866,-0.75 -13.607,-2.221c-3.722,-1.461 -7.458,-4.051 -11.103,-7.698c-0.348,-0.349 -0.823,-0.547 -1.318,-0.548c-0.494,-0 -0.967,0.199 -1.319,0.545l-6.977,6.977c-0.727,0.73 -0.727,1.908 0,2.637c4.814,4.815 9.863,8.251 15.01,10.218c5.108,1.95 11.517,2.939 19.045,2.939c10.502,0 19.003,-2.6 25.265,-7.734c6.372,-5.223 9.604,-12.366 9.604,-21.229c0,-8.583 -2.093,-14.723 -6.221,-18.256" style="fill:#002d55;fill-rule:nonzero;"/><path d="M257.123,68.564c4.002,-1.373 7.532,-3.473 10.533,-6.325c5.771,-5.484 8.699,-12.824 8.699,-21.811c-0,-9.083 -2.933,-16.424 -8.71,-21.823c-5.746,-5.362 -13.374,-8.082 -22.672,-8.082l-35.554,-0c-1.03,-0 -1.865,0.836 -1.865,1.863l0,95.664c0,1.027 0.835,1.863 1.865,1.863l10.197,0c1.03,0 1.864,-0.836 1.864,-1.863l0,-37.581l21.609,-0l19.784,38.099c0.527,1.008 1.56,1.634 2.692,1.634l0.004,-0l8.316,-0.013c1.057,0 2.051,-0.563 2.587,-1.467c0.552,-0.9 0.586,-2.038 0.09,-2.967l-19.439,-37.191Zm-35.643,-45.19l22.555,-0c5.676,-0 10.228,1.468 13.527,4.367c3.276,2.876 4.868,7.028 4.868,12.687c0,5.758 -1.571,9.953 -4.808,12.829c-3.255,2.893 -7.826,4.356 -13.587,4.356l-22.555,0l0,-34.239Z" style="fill:#002d55;fill-rule:nonzero;"/><path d="M45.302,6.883c-0.143,0.196 -0.302,0.412 -0.485,0.658c-5.87,8.638 -9.305,19.07 -9.305,30.301c-0,12.759 3.983,23.795 11.836,33.726c2.655,3.354 5.475,8.49 5.475,13.841c-0,11.185 -9.065,20.251 -20.245,20.251c-4.202,-0 -8.106,-1.282 -11.34,-3.473c6.602,5.256 14.964,8.395 24.064,8.395c21.355,0 38.671,-17.307 38.671,-38.664c-0,-11.196 -5.625,-21.038 -12.634,-30.367c-10.771,-14.327 -23.018,-30.535 -26.037,-34.668" style="fill:#00aeef;fill-rule:nonzero;"/><path d="M50.665,76.841c-1.731,0.349 -3.524,0.537 -5.363,0.537c-14.653,0 -26.53,-11.871 -26.53,-26.523c0,-5.208 1.775,-9.989 4.415,-14.518c-1.316,1.748 -2.632,3.496 -3.925,5.214c-7.011,9.328 -12.631,19.171 -12.631,30.367c-0,4.772 0.875,9.338 2.455,13.557c23.304,10.545 41.579,-8.634 41.579,-8.634" style="fill:#002d55;fill-rule:nonzero;"/><path d="M50.665,76.841c0,-0 -18.275,19.179 -41.579,8.634c2.482,6.62 6.717,12.385 12.151,16.712c3.234,2.191 7.139,3.472 11.341,3.472c11.18,-0 20.244,-9.065 20.244,-20.25c0,-3.017 -0.897,-5.967 -2.157,-8.568" style="fill:#75c043;fill-rule:nonzero;"/></svg>